ffmpeg started on 2025-06-15 at 19:56:53
Report written to "D:\Convert\FFMetrics\reports\psnr_report-6.txt"
Log level: 32
Command line:
ffmpeg -hide_banner -nostdin -i "G:\\\xc0\xed\xe8\xec\xe5\\[\xd2\xee\xef]\\\xd1\xea\xe0\xe7\xe0\xed\xe8\xe5 \xee\xe1 \xee\xe1\xf0\xf3\xf7\xe0\xeb\xfc\xed\xfb\xf5 \xea\xee\xeb\xfc\xf6\xe0\xf5\\[DC] Kekkon Yubiwa Monogatari - 09_Telegram_HEVC.mkv" -i "G:\\\xc0\xed\xe8\xec\xe5\\[\xd2\xee\xef]\\\xd1\xea\xe0\xe7\xe0\xed\xe8\xe5 \xee\xe1 \xee\xe1\xf0\xf3\xf7\xe0\xeb\xfc\xed\xfb\xf5 \xea\xee\xeb\xfc\xf6\xe0\xf5\\[DC] Kekkon Yubiwa Monogatari - 09_Telegram.mp4" -lavfi "[0:v]settb=AVTB,setpts=PTS-STARTPTS,format=pix_fmts=yuv420p10,fps=24000/1001,scale=1920:1080:flags=bicubic[main];[1:v]settb=AVTB,setpts=PTS-STARTPTS,format=pix_fmts=yuv420p,fps=24000/1001,scale=1920:1080:flags=bicubic[ref];[main][ref]psnr=eof_action=endall:stats_file='D\\:/Convert/FFMetrics/logs/psnr_logfile-6.txt'" -f null -
Input #0, matroska,webm, from 'G:\Аниме\[Топ]\Сказание об обручальных кольцах\[DC] Kekkon Yubiwa Monogatari - 09_Telegram_HEVC.mkv':
  Metadata:
    COMPATIBLE_BRANDS: isomiso2avc1mp41
    MAJOR_BRAND     : isom
    MINOR_VERSION   : 512
    ENCODER         : Lavf61.7.100
  Duration: 00:23:47.33, start: -0.021000, bitrate: 1177 kb/s
  Stream #0:0: Video: hevc (Main 10), yuv420p10le(tv, bt709, progressive), 1920x1080 [SAR 1:1 DAR 16:9], 23.98 fps, 23.98 tbr, 1k tbn (default)
      Metadata:
        HANDLER_NAME    : VideoHandler
        VENDOR_ID       : [0][0][0][0]
        ENCODER         : Lavc61.19.100 libx265
        BPS             : 978272
        DURATION        : 00:23:46.549708333
        NUMBER_OF_FRAMES: 34203
        NUMBER_OF_BYTES : 174444128
        _STATISTICS_WRITING_APP: mkvpropedit v66.0.0 ('Josie') 64-bit
        _STATISTICS_WRITING_DATE_UTC: 2025-06-15 15:37:31
        _STATISTICS_TAGS: BPS DURATION NUMBER_OF_FRAMES NUMBER_OF_BYTES
  Stream #0:1: Audio: aac (LC), 48000 Hz, stereo, fltp (default)
      Metadata:
        HANDLER_NAME    : SoundHandler
        VENDOR_ID       : [0][0][0][0]
        ENCODER         : Lavc61.19.100 aac
        BPS             : 195444
        DURATION        : 00:23:47.328000000
        NUMBER_OF_FRAMES: 66907
        NUMBER_OF_BYTES : 34870442
        _STATISTICS_WRITING_APP: mkvpropedit v66.0.0 ('Josie') 64-bit
        _STATISTICS_WRITING_DATE_UTC: 2025-06-15 15:37:31
        _STATISTICS_TAGS: BPS DURATION NUMBER_OF_FRAMES NUMBER_OF_BYTES
Input #1, mov,mp4,m4a,3gp,3g2,mj2, from 'G:\Аниме\[Топ]\Сказание об обручальных кольцах\[DC] Kekkon Yubiwa Monogatari - 09_Telegram.mp4':
  Metadata:
    major_brand     : isom
    minor_version   : 512
    compatible_brands: isomiso2avc1mp41
    encoder         : Lavf60.16.100
  Duration: 00:23:47.27, start: 0.000000, bitrate: 3823 kb/s
  Stream #1:0[0x1](und): Video: h264 (High) (avc1 / 0x31637661), yuv420p(tv, bt709, progressive), 1920x1080 [SAR 1:1 DAR 16:9], 3676 kb/s, 23.98 fps, 23.98 tbr, 24k tbn (default)
      Metadata:
        handler_name    : VideoHandler
        vendor_id       : [0][0][0][0]
        encoder         : Lavc60.31.102 h264_qsv
  Stream #1:1[0x2](und): Audio: aac (HE-AACv2) (mp4a / 0x6134706D), 48000 Hz, stereo, fltp, 144 kb/s (default)
      Metadata:
        handler_name    : SoundHandler
        vendor_id       : [0][0][0][0]
Stream mapping:
  Stream #0:0 (hevc) -> settb:default
  Stream #1:0 (h264) -> settb:default
  psnr:default -> Stream #0:0 (wrapped_avframe)
  Stream #0:1 -> #0:1 (aac (native) -> pcm_s16le (native))
Output #0, null, to 'pipe:':
  Metadata:
    COMPATIBLE_BRANDS: isomiso2avc1mp41
    MAJOR_BRAND     : isom
    MINOR_VERSION   : 512
    encoder         : Lavf61.7.100
  Stream #0:0: Video: wrapped_avframe, yuv420p10le(tv, bt709, progressive), 1920x1080 [SAR 1:1 DAR 16:9], q=2-31, 200 kb/s, 23.98 fps, 23.98 tbn
      Metadata:
        encoder         : Lavc61.19.100 wrapped_avframe
  Stream #0:1: Audio: pcm_s16le, 48000 Hz, stereo, s16, 1536 kb/s (default)
      Metadata:
        HANDLER_NAME    : SoundHandler
        VENDOR_ID       : [0][0][0][0]
        _STATISTICS_TAGS: BPS DURATION NUMBER_OF_FRAMES NUMBER_OF_BYTES
        BPS             : 195444
        DURATION        : 00:23:47.328000000
        NUMBER_OF_FRAMES: 66907
        NUMBER_OF_BYTES : 34870442
        _STATISTICS_WRITING_APP: mkvpropedit v66.0.0 ('Josie') 64-bit
        _STATISTICS_WRITING_DATE_UTC: 2025-06-15 15:37:31
        encoder         : Lavc61.19.100 pcm_s16le
frame=  186 fps=0.0 q=-0.0 size=N/A time=00:00:07.75 bitrate=N/A speed=15.1x    frame=  453 fps=439 q=-0.0 size=N/A time=00:00:18.89 bitrate=N/A speed=18.3x    frame=  736 fps=474 q=-0.0 size=N/A time=00:00:30.69 bitrate=N/A speed=19.8x    frame=  996 fps=483 q=-0.0 size=N/A time=00:00:41.54 bitrate=N/A speed=20.2x    frame= 1288 fps=498 q=-0.0 size=N/A time=00:00:53.72 bitrate=N/A speed=20.8x    frame= 1529 fps=494 q=-0.0 size=N/A time=00:01:03.77 bitrate=N/A speed=20.6x    frame= 1786 fps=495 q=-0.0 size=N/A time=00:01:14.49 bitrate=N/A speed=20.7x    frame= 2056 fps=498 q=-0.0 size=N/A time=00:01:25.75 bitrate=N/A speed=20.8x    frame= 2329 fps=502 q=-0.0 size=N/A time=00:01:37.13 bitrate=N/A speed=20.9x    frame= 2615 fps=506 q=-0.0 size=N/A time=00:01:49.06 bitrate=N/A speed=21.1x    frame= 2872 fps=506 q=-0.0 size=N/A time=00:01:59.78 bitrate=N/A speed=21.1x    frame= 3148 fps=509 q=-0.0 size=N/A time=00:02:11.29 bitrate=N/A speed=21.2x    frame= 3406 fps=508 q=-0.0 size=N/A time=00:02:22.05 bitrate=N/A speed=21.2x    frame= 3648 fps=505 q=-0.0 size=N/A time=00:02:32.15 bitrate=N/A speed=  21x    frame= 3898 fps=504 q=-0.0 size=N/A time=00:02:42.57 bitrate=N/A speed=  21x    frame= 4142 fps=502 q=-0.0 size=N/A time=00:02:52.75 bitrate=N/A speed=20.9x    frame= 4405 fps=502 q=-0.0 size=N/A time=00:03:03.72 bitrate=N/A speed=  21x    frame= 4679 fps=504 q=-0.0 size=N/A time=00:03:15.15 bitrate=N/A speed=  21x    frame= 4910 fps=501 q=-0.0 size=N/A time=00:03:24.78 bitrate=N/A speed=20.9x    frame= 5153 fps=500 q=-0.0 size=N/A time=00:03:34.92 bitrate=N/A speed=20.8x    frame= 5422 fps=500 q=-0.0 size=N/A time=00:03:46.14 bitrate=N/A speed=20.9x    frame= 5639 fps=497 q=-0.0 size=N/A time=00:03:55.19 bitrate=N/A speed=20.7x    frame= 5816 fps=491 q=-0.0 size=N/A time=00:04:02.57 bitrate=N/A speed=20.5x    frame= 6015 fps=486 q=-0.0 size=N/A time=00:04:10.87 bitrate=N/A speed=20.3x    frame= 6240 fps=484 q=-0.0 size=N/A time=00:04:20.26 bitrate=N/A speed=20.2x    frame= 6476 fps=483 q=-0.0 size=N/A time=00:04:30.10 bitrate=N/A speed=20.1x    frame= 6650 fps=478 q=-0.0 size=N/A time=00:04:37.36 bitrate=N/A speed=19.9x    frame= 6872 fps=476 q=-0.0 size=N/A time=00:04:46.61 bitrate=N/A speed=19.8x    frame= 7029 fps=470 q=-0.0 size=N/A time=00:04:53.16 bitrate=N/A speed=19.6x    frame= 7195 fps=465 q=-0.0 size=N/A time=00:05:00.09 bitrate=N/A speed=19.4x    frame= 7422 fps=464 q=-0.0 size=N/A time=00:05:09.55 bitrate=N/A speed=19.4x    frame= 7619 fps=462 q=-0.0 size=N/A time=00:05:17.77 bitrate=N/A speed=19.3x    frame= 7871 fps=463 q=-0.0 size=N/A time=00:05:28.28 bitrate=N/A speed=19.3x    frame= 8113 fps=463 q=-0.0 size=N/A time=00:05:38.37 bitrate=N/A speed=19.3x    frame= 8372 fps=464 q=-0.0 size=N/A time=00:05:49.18 bitrate=N/A speed=19.4x    frame= 8644 fps=466 q=-0.0 size=N/A time=00:06:00.52 bitrate=N/A speed=19.4x    frame= 8916 fps=467 q=-0.0 size=N/A time=00:06:11.87 bitrate=N/A speed=19.5x    frame= 9182 fps=468 q=-0.0 size=N/A time=00:06:22.96 bitrate=N/A speed=19.5x    frame= 9352 fps=465 q=-0.0 size=N/A time=00:06:30.05 bitrate=N/A speed=19.4x    frame= 9611 fps=466 q=-0.0 size=N/A time=00:06:40.85 bitrate=N/A speed=19.4x    frame= 9824 fps=465 q=-0.0 size=N/A time=00:06:49.74 bitrate=N/A speed=19.4x    frame=10066 fps=465 q=-0.0 size=N/A time=00:06:59.83 bitrate=N/A speed=19.4x    frame=10338 fps=466 q=-0.0 size=N/A time=00:07:11.18 bitrate=N/A speed=19.4x    frame=10604 fps=467 q=-0.0 size=N/A time=00:07:22.27 bitrate=N/A speed=19.5x    frame=10878 fps=469 q=-0.0 size=N/A time=00:07:33.70 bitrate=N/A speed=19.5x    frame=11138 fps=469 q=-0.0 size=N/A time=00:07:44.54 bitrate=N/A speed=19.6x    frame=11327 fps=467 q=-0.0 size=N/A time=00:07:52.43 bitrate=N/A speed=19.5x    frame=11519 fps=465 q=-0.0 size=N/A time=00:08:00.43 bitrate=N/A speed=19.4x    frame=11770 fps=466 q=-0.0 size=N/A time=00:08:10.90 bitrate=N/A speed=19.4x    frame=12027 fps=466 q=-0.0 size=N/A time=00:08:21.62 bitrate=N/A speed=19.4x    frame=12278 fps=467 q=-0.0 size=N/A time=00:08:32.09 bitrate=N/A speed=19.5x    frame=12498 fps=466 q=-0.0 size=N/A time=00:08:41.27 bitrate=N/A speed=19.4x    frame=12751 fps=466 q=-0.0 size=N/A time=00:08:51.82 bitrate=N/A speed=19.4x    frame=13015 fps=467 q=-0.0 size=N/A time=00:09:02.83 bitrate=N/A speed=19.5x    frame=13250 fps=467 q=-0.0 size=N/A time=00:09:12.63 bitrate=N/A speed=19.5x    frame=13458 fps=466 q=-0.0 size=N/A time=00:09:21.31 bitrate=N/A speed=19.4x    frame=13662 fps=465 q=-0.0 size=N/A time=00:09:29.81 bitrate=N/A speed=19.4x    frame=13883 fps=464 q=-0.0 size=N/A time=00:09:39.03 bitrate=N/A speed=19.3x    frame=14135 fps=464 q=-0.0 size=N/A time=00:09:49.54 bitrate=N/A speed=19.4x    frame=14373 fps=464 q=-0.0 size=N/A time=00:09:59.47 bitrate=N/A speed=19.4x    frame=14637 fps=465 q=-0.0 size=N/A time=00:10:10.48 bitrate=N/A speed=19.4x    frame=14911 fps=466 q=-0.0 size=N/A time=00:10:21.91 bitrate=N/A speed=19.4x    frame=15106 fps=465 q=-0.0 size=N/A time=00:10:30.04 bitrate=N/A speed=19.4x    frame=15347 fps=465 q=-0.0 size=N/A time=00:10:40.09 bitrate=N/A speed=19.4x    frame=15556 fps=464 q=-0.0 size=N/A time=00:10:48.81 bitrate=N/A speed=19.4x    frame=15785 fps=463 q=-0.0 size=N/A time=00:10:58.36 bitrate=N/A speed=19.3x    frame=16020 fps=463 q=-0.0 size=N/A time=00:11:08.16 bitrate=N/A speed=19.3x    frame=16247 fps=463 q=-0.0 size=N/A time=00:11:17.63 bitrate=N/A speed=19.3x    frame=16480 fps=463 q=-0.0 size=N/A time=00:11:27.35 bitrate=N/A speed=19.3x    frame=16717 fps=463 q=-0.0 size=N/A time=00:11:37.23 bitrate=N/A speed=19.3x    frame=16943 fps=463 q=-0.0 size=N/A time=00:11:46.66 bitrate=N/A speed=19.3x    frame=17182 fps=463 q=-0.0 size=N/A time=00:11:56.63 bitrate=N/A speed=19.3x    frame=17406 fps=462 q=-0.0 size=N/A time=00:12:05.97 bitrate=N/A speed=19.3x    frame=17627 fps=462 q=-0.0 size=N/A time=00:12:15.19 bitrate=N/A speed=19.3x    frame=17847 fps=461 q=-0.0 size=N/A time=00:12:24.36 bitrate=N/A speed=19.2x    frame=18087 fps=461 q=-0.0 size=N/A time=00:12:34.37 bitrate=N/A speed=19.2x    frame=18238 fps=459 q=-0.0 size=N/A time=00:12:40.67 bitrate=N/A speed=19.2x    frame=18449 fps=459 q=-0.0 size=N/A time=00:12:49.47 bitrate=N/A speed=19.1x    frame=18693 fps=459 q=-0.0 size=N/A time=00:12:59.65 bitrate=N/A speed=19.1x    frame=18932 fps=459 q=-0.0 size=N/A time=00:13:09.62 bitrate=N/A speed=19.1x    frame=19158 fps=458 q=-0.0 size=N/A time=00:13:19.04 bitrate=N/A speed=19.1x    frame=19379 fps=458 q=-0.0 size=N/A time=00:13:28.26 bitrate=N/A speed=19.1x    frame=19599 fps=458 q=-0.0 size=N/A time=00:13:37.44 bitrate=N/A speed=19.1x    frame=19823 fps=457 q=-0.0 size=N/A time=00:13:46.78 bitrate=N/A speed=19.1x    frame=20034 fps=457 q=-0.0 size=N/A time=00:13:55.58 bitrate=N/A speed=19.1x    frame=20262 fps=457 q=-0.0 size=N/A time=00:14:05.09 bitrate=N/A speed=  19x    frame=20509 fps=457 q=-0.0 size=N/A time=00:14:15.39 bitrate=N/A speed=19.1x    frame=20782 fps=458 q=-0.0 size=N/A time=00:14:26.78 bitrate=N/A speed=19.1x    frame=20976 fps=457 q=-0.0 size=N/A time=00:14:34.87 bitrate=N/A speed=19.1x    frame=21191 fps=456 q=-0.0 size=N/A time=00:14:43.84 bitrate=N/A speed=  19x    frame=21432 fps=456 q=-0.0 size=N/A time=00:14:53.89 bitrate=N/A speed=  19x    frame=21700 fps=457 q=-0.0 size=N/A time=00:15:05.07 bitrate=N/A speed=19.1x    frame=21958 fps=458 q=-0.0 size=N/A time=00:15:15.83 bitrate=N/A speed=19.1x    frame=22199 fps=458 q=-0.0 size=N/A time=00:15:25.88 bitrate=N/A speed=19.1x    frame=22455 fps=458 q=-0.0 size=N/A time=00:15:36.56 bitrate=N/A speed=19.1x    frame=22684 fps=458 q=-0.0 size=N/A time=00:15:46.11 bitrate=N/A speed=19.1x    frame=22959 fps=459 q=-0.0 size=N/A time=00:15:57.58 bitrate=N/A speed=19.1x    frame=23218 fps=459 q=-0.0 size=N/A time=00:16:08.38 bitrate=N/A speed=19.2x    frame=23477 fps=460 q=-0.0 size=N/A time=00:16:19.18 bitrate=N/A speed=19.2x    frame=23755 fps=460 q=-0.0 size=N/A time=00:16:30.78 bitrate=N/A speed=19.2x    frame=23983 fps=460 q=-0.0 size=N/A time=00:16:40.29 bitrate=N/A speed=19.2x    frame=24252 fps=461 q=-0.0 size=N/A time=00:16:51.51 bitrate=N/A speed=19.2x    frame=24487 fps=461 q=-0.0 size=N/A time=00:17:01.31 bitrate=N/A speed=19.2x    frame=24755 fps=461 q=-0.0 size=N/A time=00:17:12.48 bitrate=N/A speed=19.2x    frame=25019 fps=462 q=-0.0 size=N/A time=00:17:23.50 bitrate=N/A speed=19.3x    frame=25252 fps=462 q=-0.0 size=N/A time=00:17:33.21 bitrate=N/A speed=19.3x    frame=25507 fps=462 q=-0.0 size=N/A time=00:17:43.85 bitrate=N/A speed=19.3x    frame=25770 fps=462 q=-0.0 size=N/A time=00:17:54.82 bitrate=N/A speed=19.3x    frame=26041 fps=463 q=-0.0 size=N/A time=00:18:06.12 bitrate=N/A speed=19.3x    frame=26251 fps=463 q=-0.0 size=N/A time=00:18:14.88 bitrate=N/A speed=19.3x    frame=26478 fps=462 q=-0.0 size=N/A time=00:18:24.35 bitrate=N/A speed=19.3x    frame=26712 fps=462 q=-0.0 size=N/A time=00:18:34.11 bitrate=N/A speed=19.3x    frame=26961 fps=462 q=-0.0 size=N/A time=00:18:44.49 bitrate=N/A speed=19.3x    frame=27191 fps=462 q=-0.0 size=N/A time=00:18:54.09 bitrate=N/A speed=19.3x    frame=27447 fps=463 q=-0.0 size=N/A time=00:19:04.76 bitrate=N/A speed=19.3x    frame=27711 fps=463 q=-0.0 size=N/A time=00:19:15.77 bitrate=N/A speed=19.3x    frame=27980 fps=464 q=-0.0 size=N/A time=00:19:26.99 bitrate=N/A speed=19.3x    frame=28221 fps=464 q=-0.0 size=N/A time=00:19:37.05 bitrate=N/A speed=19.3x    frame=28453 fps=463 q=-0.0 size=N/A time=00:19:46.72 bitrate=N/A speed=19.3x    frame=28686 fps=463 q=-0.0 size=N/A time=00:19:56.44 bitrate=N/A speed=19.3x    frame=28955 fps=464 q=-0.0 size=N/A time=00:20:07.66 bitrate=N/A speed=19.3x    frame=29196 fps=464 q=-0.0 size=N/A time=00:20:17.71 bitrate=N/A speed=19.3x    frame=29406 fps=463 q=-0.0 size=N/A time=00:20:26.47 bitrate=N/A speed=19.3x    frame=29574 fps=462 q=-0.0 size=N/A time=00:20:33.48 bitrate=N/A speed=19.3x    frame=29747 fps=461 q=-0.0 size=N/A time=00:20:40.69 bitrate=N/A speed=19.2x    frame=29975 fps=461 q=-0.0 size=N/A time=00:20:50.20 bitrate=N/A speed=19.2x    frame=30190 fps=461 q=-0.0 size=N/A time=00:20:59.17 bitrate=N/A speed=19.2x    frame=30427 fps=461 q=-0.0 size=N/A time=00:21:09.05 bitrate=N/A speed=19.2x    frame=30687 fps=461 q=-0.0 size=N/A time=00:21:19.90 bitrate=N/A speed=19.2x    frame=30932 fps=461 q=-0.0 size=N/A time=00:21:30.12 bitrate=N/A speed=19.2x    frame=31187 fps=461 q=-0.0 size=N/A time=00:21:40.75 bitrate=N/A speed=19.2x    frame=31423 fps=461 q=-0.0 size=N/A time=00:21:50.60 bitrate=N/A speed=19.2x    frame=31636 fps=461 q=-0.0 size=N/A time=00:21:59.48 bitrate=N/A speed=19.2x    frame=31802 fps=460 q=-0.0 size=N/A time=00:22:06.40 bitrate=N/A speed=19.2x    frame=31963 fps=459 q=-0.0 size=N/A time=00:22:13.12 bitrate=N/A speed=19.1x    frame=32160 fps=458 q=-0.0 size=N/A time=00:22:21.34 bitrate=N/A speed=19.1x    frame=32354 fps=458 q=-0.0 size=N/A time=00:22:29.43 bitrate=N/A speed=19.1x    frame=32554 fps=457 q=-0.0 size=N/A time=00:22:37.77 bitrate=N/A speed=19.1x    frame=32770 fps=457 q=-0.0 size=N/A time=00:22:46.78 bitrate=N/A speed=19.1x    frame=32989 fps=457 q=-0.0 size=N/A time=00:22:55.91 bitrate=N/A speed=19.1x    frame=33214 fps=457 q=-0.0 size=N/A time=00:23:05.30 bitrate=N/A speed=  19x    frame=33425 fps=456 q=-0.0 size=N/A time=00:23:14.10 bitrate=N/A speed=  19x    frame=33622 fps=456 q=-0.0 size=N/A time=00:23:22.31 bitrate=N/A speed=  19x    frame=33807 fps=455 q=-0.0 size=N/A time=00:23:30.03 bitrate=N/A speed=  19x    frame=33998 fps=455 q=-0.0 size=N/A time=00:23:37.99 bitrate=N/A speed=  19x    [Parsed_psnr_10 @ 00000198290d2f80] PSNR y:47.594647 u:50.259897 v:49.938813 average:48.279872 min:42.568298 max:inf
[out#0/null @ 00000198290eca80] video:14697KiB audio:267628KiB subtitle:0KiB other streams:0KiB global headers:0KiB muxing overhead: unknown
frame=34203 fps=454 q=-0.0 Lsize=N/A time=00:23:46.55 bitrate=N/A speed=18.9x    
